PathFileType  4	(X/Y/Z) C:\Users\wagnerel85475\Documents\Thesis\opencap-core\Data\3375ffbc-daeb-4a43-b4f7-ac9899cd4c71\MarkerData\PreAugmentation
DataRate	CameraRate	NumFrames	NumMarkers	Units	OrigDataRate	OrigDataStartFrame	OrigNumFrames
60.0	60.0	15	20	m	60.0	401	641
Frame#	Time	Neck			RShoulder			RElbow			RWrist			LShoulder			LElbow			LWrist			midHip			RHip			RKnee			RAnkle			LHip			LKnee			LAnkle			LBigToe			LSmallToe			LHeel			RBigToe			RSmallToe			RHeel			
		X1	Y1	Z1	X2	Y2	Z2	X3	Y3	Z3	X4	Y4	Z4	X5	Y5	Z5	X6	Y6	Z6	X7	Y7	Z7	X8	Y8	Z8	X9	Y9	Z9	X10	Y10	Z10	X11	Y11	Z11	X12	Y12	Z12	X13	Y13	Z13	X14	Y14	Z14	X15	Y15	Z15	X16	Y16	Z16	X17	Y17	Z17	X18	Y18	Z18	X19	Y19	Z19	X20	Y20	Z20	

401	6.6666667	0.5981800	1.3739700	-0.1160600	0.6036200	1.3728800	0.0583400	0.7718100	1.2022900	0.1578300	1.0961600	1.2014100	0.0467100	0.5886100	1.3714400	-0.2995200	0.8778000	1.1441200	-0.3463800	1.1600800	1.1951900	-0.1873600	0.6107600	0.8087400	-0.0883100	0.6265700	0.8096900	0.0350700	0.6151400	0.3355400	0.0448500	0.5399400	-0.1733100	0.0887200	0.6039700	0.8045700	-0.2130300	0.5940200	0.3368400	-0.2190400	0.5486100	-0.1658900	-0.2658500	0.7707500	-0.2175100	-0.3178900	0.7000400	-0.2242600	-0.3597300	0.4804600	-0.2363100	-0.2602100	0.7188700	-0.2272500	0.1950400	0.6685900	-0.2282300	0.2228700	0.4754400	-0.2308200	0.0590000
402	6.6833333	0.6077900	1.3775300	-0.1120400	0.6039900	1.3766700	0.0583300	0.7612700	1.2022600	0.1551200	1.1054800	1.1990200	0.0432700	0.5893600	1.3749600	-0.2988900	0.8788700	1.1588700	-0.3477000	1.1736300	1.1991500	-0.1874700	0.6100700	0.8083900	-0.0882900	0.6261300	0.8089300	0.0353900	0.6169800	0.3284800	0.0440000	0.5398800	-0.1779000	0.0883500	0.6041000	0.8081200	-0.2124400	0.5952300	0.3365200	-0.2189100	0.5492100	-0.1652800	-0.2653900	0.7706300	-0.2209700	-0.3186100	0.7006000	-0.2238300	-0.3594400	0.4800800	-0.2363000	-0.2603200	0.7193800	-0.2271900	0.1949400	0.6688300	-0.2280900	0.2226300	0.4752200	-0.2309400	0.0587900
403	6.7000000	0.5892100	1.3774000	-0.1116500	0.5945200	1.3771700	0.0627500	0.7725900	1.2058200	0.1577000	1.1035700	1.2017400	0.0426800	0.5887100	1.3747400	-0.2993800	0.8766300	1.1668900	-0.3466600	1.1670000	1.1988200	-0.1837000	0.6016600	0.8003500	-0.0840100	0.6172500	0.8011700	0.0397200	0.6165400	0.3349700	0.0441700	0.5398100	-0.1774700	0.0881600	0.6032800	0.8006000	-0.2130500	0.5944200	0.3360900	-0.2199600	0.5485500	-0.1659200	-0.2658700	0.7705300	-0.2210000	-0.3183700	0.7087300	-0.2213000	-0.3558200	0.4707500	-0.2396500	-0.2641300	0.7189400	-0.2270100	0.1950500	0.6685900	-0.2280500	0.2228700	0.4755100	-0.2307600	0.0590600
404	6.7166667	0.6077600	1.3776000	-0.1119800	0.5953500	1.3768400	0.0628100	0.7720200	1.2033600	0.1581500	1.1275700	1.2024600	0.0383200	0.5892000	1.3750800	-0.2988000	0.8788500	1.1660400	-0.3476500	1.1605500	1.1949700	-0.1798600	0.5913200	0.8094400	-0.0878500	0.6173900	0.8065500	0.0393300	0.6081400	0.3310000	0.0490000	0.5401000	-0.1819700	0.0877500	0.6028100	0.8118200	-0.2126300	0.5965400	0.3391900	-0.2202500	0.5493000	-0.1651700	-0.2654100	0.7708000	-0.2209600	-0.3185600	0.7006900	-0.2238400	-0.3593900	0.4800800	-0.2362500	-0.2603600	0.7197900	-0.2239700	0.1943400	0.6689000	-0.2279000	0.2226100	0.4859600	-0.2244600	0.0613300
405	6.7333333	0.6083400	1.3770100	-0.1121000	0.6051500	1.3768300	0.0663200	0.7910800	1.2039000	0.1564100	1.1394800	1.2055200	0.0295700	0.5977900	1.3745900	-0.2953300	0.8851100	1.1666000	-0.3424400	1.1749700	1.1954200	-0.1802700	0.5919100	0.8057500	-0.0880400	0.6076900	0.8062800	0.0357300	0.6182600	0.3279700	0.0517800	0.5398800	-0.1775600	0.0881800	0.5927500	0.8107500	-0.2170700	0.5966100	0.3355500	-0.2210900	0.5487000	-0.1659300	-0.2658900	0.7791200	-0.2180000	-0.3145000	0.7088900	-0.2213600	-0.3557300	0.4707100	-0.2395400	-0.2641900	0.7190500	-0.2268900	0.1951000	0.6685200	-0.2279200	0.2229600	0.4755600	-0.2307800	0.0590800
406	6.7500000	0.6177700	1.3773100	-0.1082000	0.6059800	1.3764300	0.0664600	0.7994800	1.1922300	0.1601200	1.1279600	1.2026200	0.0384200	0.5892500	1.3749700	-0.2908600	0.8955000	1.1623600	-0.3394200	1.1813800	1.1965200	-0.1838500	0.5904600	0.8092500	-0.0879800	0.5881200	0.8035300	0.0369100	0.6181300	0.3330000	0.0524700	0.5400700	-0.1778900	0.0883800	0.5929100	0.8109000	-0.2165600	0.5980100	0.3351300	-0.2208700	0.5489200	-0.1692800	-0.2659700	0.7791200	-0.2214300	-0.3153300	0.7093900	-0.2243800	-0.3560500	0.4700100	-0.2396900	-0.2644200	0.7290600	-0.2233900	0.1978500	0.6788000	-0.2239900	0.2255100	0.4753100	-0.2307000	0.0587600
407	6.7666667	0.6181700	1.3767800	-0.1083300	0.6154000	1.3765700	0.0699200	0.7920800	1.2011200	0.1563800	1.1473600	1.2024900	0.0328100	0.5985200	1.3745200	-0.2950700	0.8939400	1.1660900	-0.3382800	1.1752100	1.1952500	-0.1801400	0.5909100	0.8056000	-0.0881500	0.5775200	0.8032200	0.0330900	0.6271300	0.3385100	0.0563600	0.5401900	-0.1733900	0.0888000	0.5834100	0.8064700	-0.2131700	0.6062000	0.3375900	-0.2251500	0.5483900	-0.1697700	-0.2664100	0.7788700	-0.2215200	-0.3151000	0.7092400	-0.2247500	-0.3550700	0.4704300	-0.2394600	-0.2642600	0.7287400	-0.2233600	0.1979400	0.6787300	-0.2241700	0.2257600	0.4753400	-0.2264400	0.0595800
408	6.7833333	0.6274000	1.3698900	-0.1123800	0.6163300	1.3761500	0.0698300	0.8176600	1.1879600	0.1510300	1.1707200	1.1909100	0.0287900	0.6085900	1.3712600	-0.2985700	0.9122300	1.1547300	-0.3311200	1.1902200	1.1925200	-0.1802200	0.5803600	0.8005700	-0.0914900	0.5658400	0.7976500	0.0302300	0.6285700	0.3280400	0.0560100	0.5402900	-0.1740100	0.0890700	0.5842600	0.8030900	-0.2124400	0.6158200	0.3357000	-0.2284900	0.5487400	-0.1692200	-0.2659400	0.7792600	-0.2178000	-0.3146700	0.7093300	-0.2208300	-0.3554100	0.4692100	-0.2428800	-0.2650300	0.7293600	-0.2235600	0.1979400	0.6791300	-0.2243000	0.2255600	0.4752600	-0.2295800	0.0600000
409	6.8000000	0.6276400	1.3663900	-0.1126300	0.6262100	1.3692000	0.0734800	0.8639400	1.1701700	0.1588600	1.1479700	1.1924200	0.0327800	0.6271200	1.3612400	-0.2994000	0.9017900	1.1584500	-0.3341300	1.1983200	1.1825900	-0.1765900	0.5715900	0.7930500	-0.0868900	0.5460400	0.7893100	0.0312600	0.6374700	0.3258900	0.0606400	0.5406000	-0.1766100	0.0894400	0.5743700	0.7981100	-0.2165200	0.6341000	0.3399900	-0.2370900	0.5485000	-0.1698800	-0.2664500	0.7791100	-0.2177900	-0.3145300	0.7087200	-0.2212700	-0.3556500	0.4698400	-0.2426700	-0.2649100	0.7290200	-0.2233200	0.1979400	0.6786100	-0.2240700	0.2258200	0.4758500	-0.2323200	0.0608700
410	6.8166667	0.6275100	1.3638400	-0.1122600	0.6287700	1.3685700	0.0813900	0.8262200	1.1760600	0.1543200	1.2032000	1.1783000	0.0415100	0.6370200	1.3566200	-0.2946100	0.9207600	1.1516000	-0.3272900	1.1906700	1.1717700	-0.1800200	0.5608900	0.7944900	-0.0908200	0.5359000	0.7866300	0.0275300	0.6481700	0.3328900	0.0637500	0.5313500	-0.1769600	0.0935400	0.5742500	0.7944900	-0.2160100	0.6545000	0.3406300	-0.2454500	0.5491000	-0.1730400	-0.2665300	0.7793900	-0.2176700	-0.3147200	0.7093000	-0.2207200	-0.3553900	0.4690000	-0.2389300	-0.2656400	0.7293000	-0.2167900	0.1979400	0.6683600	-0.2236700	0.2235600	0.4755500	-0.2323400	0.0606600
411	6.8333333	0.6279000	1.3570700	-0.1124600	0.6276600	1.3628100	0.0814700	0.8265800	1.1764200	0.1462700	1.2000300	1.1774700	0.0339600	0.6463500	1.3522100	-0.2908400	0.9194000	1.1424200	-0.3260700	1.1979900	1.1601700	-0.1765800	0.5611300	0.7874300	-0.0908100	0.5261000	0.7821200	0.0235800	0.6680800	0.3327500	0.0709800	0.5317300	-0.1796200	0.0939200	0.5734000	0.7940700	-0.2166000	0.6619700	0.3396700	-0.2493600	0.5488300	-0.1697800	-0.2665000	0.7787700	-0.2146600	-0.3151200	0.7174000	-0.2182300	-0.3517800	0.4694400	-0.2388600	-0.2655200	0.7284600	-0.2197300	0.1985900	0.6596900	-0.2268700	0.2283800	0.4766100	-0.2353200	0.0615200
412	6.8500000	0.6375100	1.3460500	-0.1088000	0.6459100	1.3509600	0.0723600	0.8260000	1.1817500	0.1388300	1.1858200	1.1742300	0.0280600	0.6471200	1.3479100	-0.2903800	0.9456400	1.1454900	-0.3230400	1.2191400	1.1581500	-0.1727700	0.5502300	0.7855600	-0.0945600	0.5252100	0.7776200	0.0240700	0.6785500	0.3360200	0.0742700	0.5319800	-0.1800800	0.0942200	0.5645000	0.7932400	-0.2120100	0.6637800	0.3431200	-0.2497600	0.5590400	-0.1697200	-0.2705500	0.7702800	-0.2179000	-0.3116300	0.7179000	-0.2178300	-0.3515300	0.4694700	-0.2425500	-0.2650900	0.7291600	-0.2169300	0.1978900	0.6683300	-0.2237900	0.2235400	0.4673500	-0.2386900	0.0657600
413	6.8666667	0.6376800	1.3446100	-0.1090000	0.6455800	1.3432000	0.0725300	0.8444500	1.1679700	0.1447800	1.2004500	1.1607900	0.0337800	0.6470300	1.3432400	-0.2826700	0.9442700	1.1393100	-0.3292800	1.2342400	1.1556200	-0.1657400	0.5308800	0.7802800	-0.0936300	0.5243600	0.7748500	0.0241900	0.6880700	0.3299500	0.0777100	0.5318300	-0.1796700	0.0939800	0.5441700	0.7833700	-0.2040600	0.6638700	0.3397100	-0.2506000	0.5585400	-0.1702800	-0.2710900	0.7698900	-0.2180200	-0.3114800	0.7088200	-0.2212600	-0.3557200	0.4693600	-0.2388600	-0.2655600	0.7286500	-0.2169200	0.1978600	0.6679200	-0.2238400	0.2237400	0.4677300	-0.2459900	0.0660200
414	6.8833333	0.6384600	1.3246200	-0.1083400	0.6674700	1.3223500	0.0794900	0.8912600	1.1500000	0.1613200	1.2024700	1.1486800	0.0345300	0.6661100	1.3315200	-0.2819700	0.9458200	1.1252400	-0.3226900	1.2123000	1.1509100	-0.1766500	0.5001400	0.7678900	-0.0889500	0.5156100	0.7641400	0.0284200	0.6804200	0.3291200	0.0821400	0.5322200	-0.1799900	0.0941800	0.5144800	0.7754500	-0.1986900	0.6775100	0.3376900	-0.2558500	0.5589000	-0.1698400	-0.2706000	0.7702100	-0.2178700	-0.3115900	0.7180000	-0.2213200	-0.3521100	0.4687900	-0.2390800	-0.2657300	0.7196800	-0.2202800	0.1949900	0.6684300	-0.2236700	0.2233300	0.4758300	-0.2326100	0.0606600
415	6.9000000	0.6575700	1.3196100	-0.1089000	0.6676300	1.3152800	0.0796400	0.9111400	1.1249000	0.1674400	1.1848000	1.1366000	0.0271800	0.6664900	1.3206700	-0.2741500	0.9528200	1.1159000	-0.3251700	1.2196000	1.1419400	-0.1729800	0.4811300	0.7571500	-0.0885500	0.5072100	0.7545500	0.0242900	0.6893500	0.3301500	0.0855800	0.5320800	-0.1795700	0.0939800	0.4935200	0.7676400	-0.1991600	0.6754100	0.3341700	-0.2557100	0.5585300	-0.1704400	-0.2710800	0.7700300	-0.2179400	-0.3113500	0.7176600	-0.2217700	-0.3523100	0.4696700	-0.2425900	-0.2649300	0.7192200	-0.2202500	0.1949600	0.6685000	-0.2206100	0.2229500	0.4761300	-0.2397700	0.0610600
